Coordinates
version=1
nRows=12
nColumns=28
inDegrees=yes

Units are S.I. units (second, meters, Newtons, ...)
Angles are in degrees.

endheader
time	pelvis_tilt	pelvis_list	pelvis_rotation	pelvis_tx	pelvis_ty	pelvis_tz	hip_flexion_r	hip_adduction_r	hip_rotation_r	knee_angle_r	ankle_angle_r	subtalar_angle_r	mtp_angle_r	hip_flexion_l	hip_adduction_l	hip_rotation_l	knee_angle_l	socket_flexion	socket_adduction	socket_rotation	socket_tx	socket_ty	socket_tz	foot_flex	lumbar_extension	lumbar_bending	lumbar_rotation
      0.32500000	      4.70089371	     -2.96771609	     -6.39049648	     -0.42991349	      1.01639294	      0.28826014	     13.51095908	      5.44922826	      4.88764827	    -63.82825141	      3.74597537	    -14.91980801	     27.53713692	     -0.53450283	     -2.89642398	     -7.57879102	     -2.72153087	      1.55181204	      4.55839291	     13.28914812	      0.02649385	     -0.00852337	     -0.00048140	      1.61285965	    -14.41639482	     -1.44617938	      5.85980494
      0.32916667	      4.68428523	     -3.06151485	     -6.23511424	     -0.42452761	      1.01691751	      0.28783422	     13.93741376	      5.57868952	      4.84761542	    -63.19236237	      4.06987725	    -14.84949287	     27.57887307	     -1.00889703	     -2.90810305	     -7.57239940	     -2.58803634	      1.46098351	      4.50449886	     13.54499559	      0.02552052	     -0.00836705	      0.00003390	      1.89200196	    -14.30979159	     -1.31013756	      5.79455403
      0.33333333	      4.73815761	     -3.06846445	     -6.15471806	     -0.42016855	      1.01725852	      0.28761594	     14.48854811	      5.63527274	      4.82466887	    -62.77792975	      4.16444235	    -14.83610523	     27.58818299	     -1.24979939	     -2.89681619	     -7.61990309	     -2.61718239	      1.47723598	      4.52412697	     13.57581366	      0.02637088	     -0.00813208	     -0.00026162	      1.90849482	    -14.51097097	     -1.29712139	      5.77258454
      0.33750000	      4.70288243	     -3.22389642	     -6.01763067	     -0.41456606	      1.01772886	      0.28721245	     14.85931935	      5.82969734	      4.79496421	    -62.02695076	      4.65463792	    -14.73262973	     27.65354411	     -1.79429361	     -2.98049913	     -7.65000496	     -2.43689634	      1.34093938	      4.48162136	     13.82354376	      0.02490993	     -0.00809151	      0.00022785	      2.11824435	    -14.34453581	     -1.06517558	      5.62383417
      0.34166667	      4.72949704	     -3.43784408	     -5.94512216	     -0.40941618	      1.01808517	      0.28692244	     15.25073724	      6.08692441	      4.74476494	    -61.38359181	      5.16982130	    -14.52621412	     27.71534233	     -2.34105777	     -3.20356465	     -7.73427314	     -2.29432176	      1.21089830	      4.51564950	     13.97522311	      0.02374573	     -0.00823196	     -0.00017348	      2.22078062	    -14.37998533	     -0.75212426	      5.41249850
      0.34583333	      4.79137166	     -3.43525859	     -5.88030130	     -0.40522072	      1.01832261	      0.28679448	     15.79435934	      6.13618136	      4.73189178	    -60.94003916	      5.23360464	    -14.50971071	     27.71480200	     -2.56115117	     -3.20228688	     -7.76566073	     -2.33950011	      1.23762865	      4.55058206	     14.00163550	      0.02471025	     -0.00811586	     -0.00062444	      2.23427011	    -14.60802740	     -0.76623924	      5.39250749
      0.35000000	      4.78828505	     -3.53882271	     -5.72439137	     -0.39993326	      1.01879092	      0.28654914	     16.11353367	      6.29400090	      4.73904673	    -60.08985383	      5.52442127	    -14.42379291	     27.71736785	     -3.00553610	     -3.28474956	     -7.77710946	     -2.23614003	      1.14991952	      4.56342455	     14.17151371	      0.02400753	     -0.00788731	     -0.00056471	      2.41482718	    -14.53346053	     -0.63512547	      5.28177112
      0.35416667	      4.99899052	     -4.04689519	     -5.65808840	     -0.39489653	      1.01919544	      0.28642599	     16.21788601	      6.85956111	      4.62865331	    -59.28851209	      6.11828780	    -14.02811832	     27.57628109	     -3.86874542	     -3.99645797	     -7.86105436	     -2.05094604	      0.92411603	      4.80396318	     14.26489870	      0.02193403	     -0.00842832	     -0.00275675	      2.45426123	    -14.84820313	      0.02580401	      4.88392459
      0.35833333	      5.01590073	     -4.04307400	     -5.54955223	     -0.39022045	      1.01946891	      0.28626691	     16.63848904	      6.89618806	      4.63550624	    -58.56447602	      6.18935850	    -14.05475383	     27.52569675	     -4.14882775	     -3.96038337	     -7.83090799	     -2.03448379	      0.91603371	      4.79087006	     14.38821911	      0.02232034	     -0.00819806	     -0.00272817	      2.59223261	    -14.89959590	     -0.00901877	      4.88855288
      0.36250000	      5.00709528	     -4.07480624	     -5.44416685	     -0.38532037	      1.01972737	      0.28598667	     17.04499902	      6.93927539	      4.58596873	    -57.78689366	      6.31271134	    -14.10831829	     27.46781201	     -4.48528250	     -3.92482645	     -7.85492248	     -1.97464486	      0.87732461	      4.74304460	     14.49251529	      0.02223940	     -0.00805006	     -0.00235698	      2.72160475	    -14.89784147	      0.04575389	      4.86835869
      0.36666667	      5.03636393	     -4.06431651	     -5.39315297	     -0.38115939	      1.01969430	      0.28587117	     17.58355975	      6.96075313	      4.55101712	    -57.25400272	      6.37182118	    -14.12914433	     27.45186311	     -4.70468518	     -3.89852862	     -7.88762817	     -1.99071025	      0.88513794	      4.75269568	     14.52871081	      0.02294394	     -0.00803659	     -0.00258743	      2.75371455	    -15.10693434	      0.03132126	      4.85619516
      0.37083333	      4.98313584	     -4.10556347	     -5.25467458	     -0.37569887	      1.02004476	      0.28557427	     17.85577022	      7.00751151	      4.51675290	    -56.19608228	      6.54969145	    -14.21322261	     27.38151973	     -5.10510768	     -3.85971937	     -7.89770047	     -1.87781179	      0.80955847	      4.68069280	     14.68439895	      0.02230931	     -0.00768544	     -0.00198596	      2.94043328	    -14.91540003	      0.09931844	      4.80533481
